<?xml version="1.0" encoding="UTF-8"?>
<!DOCTYPE svg PUBLIC "-//W3C//DTD SVG 1.1//EN" "http://www.w3.org/Graphics/SVG/1.1/DTD/svg11.dtd">
<svg xmlns="http://www.w3.org/2000/svg" version="1.1" width="117px" height="117px" style="shape-rendering:geometricPrecision; text-rendering:geometricPrecision; image-rendering:optimizeQuality; fill-rule:evenodd; clip-rule:evenodd" xmlns:xlink="http://www.w3.org/1999/xlink">
<g><path style="opacity:1" fill="#444444" d="M 65.5,31.5 C 63.7499,30.2583 62.0832,28.7583 60.5,27C 57.1667,26.3333 53.8333,26.3333 50.5,27C 49.1312,28.7189 48.1312,30.5522 47.5,32.5C 47.1667,32.5 46.8333,32.5 46.5,32.5C 46.9697,27.032 49.9697,24.3653 55.5,24.5C 60.4718,24.4692 63.8052,26.8025 65.5,31.5 Z"/></g>
<g><path style="opacity:1" fill="#f0f0f0" d="M 65.5,31.5 C 73.3793,50.484 81.046,69.484 88.5,88.5C 82.69,89.4896 76.69,89.8229 70.5,89.5C 69.8902,88.609 69.5569,87.609 69.5,86.5C 71.7144,83.9559 71.7144,81.2893 69.5,78.5C 68.0892,76.086 66.0892,74.4194 63.5,73.5C 63.4226,72.2502 62.756,71.4169 61.5,71C 56.6478,70.1849 51.9811,70.3516 47.5,71.5C 43.44,73.2965 39.94,75.9632 37,79.5C 35.7978,81.6775 35.2978,84.0108 35.5,86.5C 35.3284,87.4916 35.6618,88.1583 36.5,88.5C 33.6447,89.8032 30.6447,89.8032 27.5,88.5C 28.2458,87.2638 28.5792,85.9305 28.5,84.5C 29.3382,84.1583 29.6716,83.4916 29.5,82.5C 30.404,81.791 30.7373,80.791 30.5,79.5C 31.3382,79.1583 31.6716,78.4916 31.5,77.5C 32.404,76.791 32.7373,75.791 32.5,74.5C 33.3382,74.1583 33.6716,73.4916 33.5,72.5C 34.404,71.791 34.7373,70.791 34.5,69.5C 35.3382,69.1583 35.6716,68.4916 35.5,67.5C 36.404,66.791 36.7373,65.791 36.5,64.5C 37.3382,64.1583 37.6716,63.4916 37.5,62.5C 38.404,61.791 38.7373,60.791 38.5,59.5C 39.3382,59.1583 39.6716,58.4916 39.5,57.5C 40.404,56.791 40.7373,55.791 40.5,54.5C 41.404,53.791 41.7373,52.791 41.5,51.5C 42.3382,51.1583 42.6716,50.4916 42.5,49.5C 43.404,48.791 43.7373,47.791 43.5,46.5C 44.404,45.791 44.7373,44.791 44.5,43.5C 45.404,42.791 45.7373,41.791 45.5,40.5C 46.4345,39.4324 46.7678,38.099 46.5,36.5C 47.4345,35.4324 47.7678,34.099 47.5,32.5C 48.1312,30.5522 49.1312,28.7189 50.5,27C 53.8333,26.3333 57.1667,26.3333 60.5,27C 62.0832,28.7583 63.7499,30.2583 65.5,31.5 Z M 53.5,44.5 C 57.6067,50.151 59.9401,56.4843 60.5,63.5C 59.5,63.8333 58.8333,64.5 58.5,65.5C 53.737,65.7744 49.0704,65.441 44.5,64.5C 45.2173,58.1798 47.0507,52.1798 50,46.5C 50.8159,45.1772 51.9826,44.5106 53.5,44.5 Z"/></g>
<g><path style="opacity:1" fill="#545454" d="M 46.5,32.5 C 46.8333,32.5 47.1667,32.5 47.5,32.5C 47.7678,34.099 47.4345,35.4324 46.5,36.5C 46.1667,36.5 45.8333,36.5 45.5,36.5C 45.2322,34.901 45.5655,33.5676 46.5,32.5 Z"/></g>
<g><path style="opacity:1" fill="#3e3e3e" d="M 65.5,31.5 C 69.4167,36.9953 72.5834,42.9953 75,49.5C 80.1387,62.4196 84.9721,75.4196 89.5,88.5C 89.1667,88.5 88.8333,88.5 88.5,88.5C 81.046,69.484 73.3793,50.484 65.5,31.5 Z"/></g>
<g><path style="opacity:1" fill="#545454" d="M 45.5,36.5 C 45.8333,36.5 46.1667,36.5 46.5,36.5C 46.7678,38.099 46.4345,39.4324 45.5,40.5C 45.1667,40.5 44.8333,40.5 44.5,40.5C 44.2322,38.901 44.5655,37.5676 45.5,36.5 Z"/></g>
<g><path style="opacity:1" fill="#545454" d="M 44.5,40.5 C 44.8333,40.5 45.1667,40.5 45.5,40.5C 45.7373,41.791 45.404,42.791 44.5,43.5C 44.1667,43.5 43.8333,43.5 43.5,43.5C 43.2627,42.209 43.596,41.209 44.5,40.5 Z"/></g>
<g><path style="opacity:1" fill="#545454" d="M 43.5,43.5 C 43.8333,43.5 44.1667,43.5 44.5,43.5C 44.7373,44.791 44.404,45.791 43.5,46.5C 43.1667,46.5 42.8333,46.5 42.5,46.5C 42.2627,45.209 42.596,44.209 43.5,43.5 Z"/></g>
<g><path style="opacity:1" fill="#414141" d="M 53.5,44.5 C 55.0174,44.5106 56.1841,45.1772 57,46.5C 60.5378,51.8954 62.0378,57.562 61.5,63.5C 61.1667,63.5 60.8333,63.5 60.5,63.5C 59.9401,56.4843 57.6067,50.151 53.5,44.5 Z"/></g>
<g><path style="opacity:1" fill="#545454" d="M 42.5,46.5 C 42.8333,46.5 43.1667,46.5 43.5,46.5C 43.7373,47.791 43.404,48.791 42.5,49.5C 42.1667,49.5 41.8333,49.5 41.5,49.5C 41.2627,48.209 41.596,47.209 42.5,46.5 Z"/></g>
<g><path style="opacity:1" fill="#545454" d="M 41.5,49.5 C 41.8333,49.5 42.1667,49.5 42.5,49.5C 42.6716,50.4916 42.3382,51.1583 41.5,51.5C 41.1667,51.5 40.8333,51.5 40.5,51.5C 40.3284,50.5084 40.6618,49.8417 41.5,49.5 Z"/></g>
<g><path style="opacity:1" fill="#545454" d="M 40.5,51.5 C 40.8333,51.5 41.1667,51.5 41.5,51.5C 41.7373,52.791 41.404,53.791 40.5,54.5C 40.1667,54.5 39.8333,54.5 39.5,54.5C 39.2627,53.209 39.596,52.209 40.5,51.5 Z"/></g>
<g><path style="opacity:1" fill="#545454" d="M 39.5,54.5 C 39.8333,54.5 40.1667,54.5 40.5,54.5C 40.7373,55.791 40.404,56.791 39.5,57.5C 39.1667,57.5 38.8333,57.5 38.5,57.5C 38.2627,56.209 38.596,55.209 39.5,54.5 Z"/></g>
<g><path style="opacity:1" fill="#545454" d="M 38.5,57.5 C 38.8333,57.5 39.1667,57.5 39.5,57.5C 39.6716,58.4916 39.3382,59.1583 38.5,59.5C 38.1667,59.5 37.8333,59.5 37.5,59.5C 37.3284,58.5084 37.6618,57.8417 38.5,57.5 Z"/></g>
<g><path style="opacity:1" fill="#545454" d="M 37.5,59.5 C 37.8333,59.5 38.1667,59.5 38.5,59.5C 38.7373,60.791 38.404,61.791 37.5,62.5C 37.1667,62.5 36.8333,62.5 36.5,62.5C 36.2627,61.209 36.596,60.209 37.5,59.5 Z"/></g>
<g><path style="opacity:1" fill="#545454" d="M 36.5,62.5 C 36.8333,62.5 37.1667,62.5 37.5,62.5C 37.6716,63.4916 37.3382,64.1583 36.5,64.5C 36.1667,64.5 35.8333,64.5 35.5,64.5C 35.3284,63.5084 35.6618,62.8417 36.5,62.5 Z"/></g>
<g><path style="opacity:1" fill="#545454" d="M 35.5,64.5 C 35.8333,64.5 36.1667,64.5 36.5,64.5C 36.7373,65.791 36.404,66.791 35.5,67.5C 35.1667,67.5 34.8333,67.5 34.5,67.5C 34.2627,66.209 34.596,65.209 35.5,64.5 Z"/></g>
<g><path style="opacity:1" fill="#5c5c5c" d="M 60.5,63.5 C 60.8333,63.5 61.1667,63.5 61.5,63.5C 60.8333,64.8333 59.8333,65.8333 58.5,66.5C 58.5,66.1667 58.5,65.8333 58.5,65.5C 58.8333,64.5 59.5,63.8333 60.5,63.5 Z"/></g>
<g><path style="opacity:1" fill="#0e0e0e" d="M 44.5,64.5 C 49.0704,65.441 53.737,65.7744 58.5,65.5C 58.5,65.8333 58.5,66.1667 58.5,66.5C 53.3814,67.1031 48.7147,66.4364 44.5,64.5 Z"/></g>
<g><path style="opacity:1" fill="#545454" d="M 34.5,67.5 C 34.8333,67.5 35.1667,67.5 35.5,67.5C 35.6716,68.4916 35.3382,69.1583 34.5,69.5C 34.1667,69.5 33.8333,69.5 33.5,69.5C 33.3284,68.5084 33.6618,67.8417 34.5,67.5 Z"/></g>
<g><path style="opacity:1" fill="#545454" d="M 33.5,69.5 C 33.8333,69.5 34.1667,69.5 34.5,69.5C 34.7373,70.791 34.404,71.791 33.5,72.5C 33.1667,72.5 32.8333,72.5 32.5,72.5C 32.2627,71.209 32.596,70.209 33.5,69.5 Z"/></g>
<g><path style="opacity:1" fill="#272727" d="M 47.5,71.5 C 51.9811,70.3516 56.6478,70.1849 61.5,71C 62.756,71.4169 63.4226,72.2502 63.5,73.5C 58.3561,71.7359 53.0228,71.0692 47.5,71.5 Z"/></g>
<g><path style="opacity:1" fill="#545454" d="M 32.5,72.5 C 32.8333,72.5 33.1667,72.5 33.5,72.5C 33.6716,73.4916 33.3382,74.1583 32.5,74.5C 32.1667,74.5 31.8333,74.5 31.5,74.5C 31.3284,73.5084 31.6618,72.8417 32.5,72.5 Z"/></g>
<g><path style="opacity:1" fill="#363636" d="M 63.5,73.5 C 66.0892,74.4194 68.0892,76.086 69.5,78.5C 69.5,79.8333 69.5,81.1667 69.5,82.5C 68.3896,79.0289 66.3896,76.0289 63.5,73.5 Z"/></g>
<g><path style="opacity:1" fill="#545454" d="M 31.5,74.5 C 31.8333,74.5 32.1667,74.5 32.5,74.5C 32.7373,75.791 32.404,76.791 31.5,77.5C 31.1667,77.5 30.8333,77.5 30.5,77.5C 30.2627,76.209 30.596,75.209 31.5,74.5 Z"/></g>
<g><path style="opacity:1" fill="#545454" d="M 30.5,77.5 C 30.8333,77.5 31.1667,77.5 31.5,77.5C 31.6716,78.4916 31.3382,79.1583 30.5,79.5C 30.1667,79.5 29.8333,79.5 29.5,79.5C 29.3284,78.5084 29.6618,77.8417 30.5,77.5 Z"/></g>
<g><path style="opacity:1" fill="#5a5a5a" d="M 69.5,78.5 C 71.7144,81.2893 71.7144,83.9559 69.5,86.5C 69.1667,86.5 68.8333,86.5 68.5,86.5C 68.4326,85.0413 68.7659,83.7079 69.5,82.5C 69.5,81.1667 69.5,79.8333 69.5,78.5 Z"/></g>
<g><path style="opacity:1" fill="#545454" d="M 29.5,79.5 C 29.8333,79.5 30.1667,79.5 30.5,79.5C 30.7373,80.791 30.404,81.791 29.5,82.5C 29.1667,82.5 28.8333,82.5 28.5,82.5C 28.2627,81.209 28.596,80.209 29.5,79.5 Z"/></g>
<g><path style="opacity:1" fill="#545454" d="M 28.5,82.5 C 28.8333,82.5 29.1667,82.5 29.5,82.5C 29.6716,83.4916 29.3382,84.1583 28.5,84.5C 28.1667,84.5 27.8333,84.5 27.5,84.5C 27.3284,83.5084 27.6618,82.8417 28.5,82.5 Z"/></g>
<g><path style="opacity:1" fill="#000000" d="M 68.5,86.5 C 68.2852,88.1788 68.9519,89.1788 70.5,89.5C 70.5,89.8333 70.5,90.1667 70.5,90.5C 69.5,90.5 68.5,90.5 67.5,90.5C 67.2322,88.901 67.5655,87.5676 68.5,86.5 Z"/></g>
<g><path style="opacity:1" fill="#808180" d="M 68.5,86.5 C 68.8333,86.5 69.1667,86.5 69.5,86.5C 69.5569,87.609 69.8902,88.609 70.5,89.5C 68.9519,89.1788 68.2852,88.1788 68.5,86.5 Z"/></g>
<g><path style="opacity:1" fill="#616161" d="M 27.5,84.5 C 27.8333,84.5 28.1667,84.5 28.5,84.5C 28.5792,85.9305 28.2458,87.2638 27.5,88.5C 30.6447,89.8032 33.6447,89.8032 36.5,88.5C 37.1667,88.5 37.8333,88.5 38.5,88.5C 40.1054,89.0059 40.4387,89.6726 39.5,90.5C 34.6367,90.8195 29.97,90.4861 25.5,89.5C 25.7959,87.597 26.4625,85.9303 27.5,84.5 Z"/></g>
<g><path style="opacity:1" fill="#1f1f1f" d="M 35.5,86.5 C 36.7095,86.9321 37.7095,87.5987 38.5,88.5C 37.8333,88.5 37.1667,88.5 36.5,88.5C 35.6618,88.1583 35.3284,87.4916 35.5,86.5 Z"/></g>
<g><path style="opacity:1" fill="#808180" d="M 88.5,88.5 C 88.8333,88.5 89.1667,88.5 89.5,88.5C 83.588,90.4563 77.2547,91.1229 70.5,90.5C 70.5,90.1667 70.5,89.8333 70.5,89.5C 76.69,89.8229 82.69,89.4896 88.5,88.5 Z"/></g>
<g><path style="opacity:1" fill="#000000" d="M 89.5,88.5 C 90.2674,89.172 90.9341,90.0053 91.5,91C 84.3209,91.8213 77.3209,91.6546 70.5,90.5C 77.2547,91.1229 83.588,90.4563 89.5,88.5 Z"/></g>
<g><path style="opacity:1" fill="#000000" d="M 25.5,89.5 C 29.97,90.4861 34.6367,90.8195 39.5,90.5C 34.6523,91.8137 29.6523,91.8137 24.5,90.5C 24.6236,89.8933 24.9569,89.56 25.5,89.5 Z"/></g>
</svg>
