<?xml version="1.0" encoding="UTF-8"?>
<!DOCTYPE svg PUBLIC "-//W3C//DTD SVG 1.1//EN" "http://www.w3.org/Graphics/SVG/1.1/DTD/svg11.dtd">
<svg xmlns="http://www.w3.org/2000/svg" version="1.1" width="117px" height="117px" style="shape-rendering:geometricPrecision; text-rendering:geometricPrecision; image-rendering:optimizeQuality; fill-rule:evenodd; clip-rule:evenodd" xmlns:xlink="http://www.w3.org/1999/xlink">
<g><path style="opacity:1" fill="#444444" d="M 95.5,18.5 C 94.8333,18.5 94.1667,18.5 93.5,18.5C 88.8696,17.7705 84.2029,17.4372 79.5,17.5C 78.5,17.5 77.5,17.5 76.5,17.5C 78.8476,16.0483 81.5143,15.3817 84.5,15.5C 88.5785,15.4336 92.2452,16.4336 95.5,18.5 Z"/></g>
<g><path style="opacity:1" fill="#5f5f5f" d="M 76.5,17.5 C 77.5,17.5 78.5,17.5 79.5,17.5C 78.7095,18.4013 77.7095,19.0679 76.5,19.5C 76.1667,19.5 75.8333,19.5 75.5,19.5C 75.3284,18.5084 75.6618,17.8417 76.5,17.5 Z"/></g>
<g><path style="opacity:1" fill="#e2e2e2" d="M 79.5,17.5 C 84.2029,17.4372 88.8696,17.7705 93.5,18.5C 93.6107,19.1174 93.944,19.6174 94.5,20C 89.9805,20.1753 85.6472,20.6753 81.5,21.5C 81.0679,22.7095 80.4013,23.7095 79.5,24.5C 77.9174,26.5078 76.9174,28.8411 76.5,31.5C 76.5,27.5 76.5,23.5 76.5,19.5C 77.7095,19.0679 78.7095,18.4013 79.5,17.5 Z"/></g>
<g><path style="opacity:1" fill="#404040" d="M 93.5,18.5 C 94.1667,18.5 94.8333,18.5 95.5,18.5C 96.7911,19.5417 96.7911,20.7083 95.5,22C 90.8159,22.4614 86.1493,22.2947 81.5,21.5C 85.6472,20.6753 89.9805,20.1753 94.5,20C 93.944,19.6174 93.6107,19.1174 93.5,18.5 Z"/></g>
<g><path style="opacity:1" fill="#454545" d="M 75.5,19.5 C 75.8333,19.5 76.1667,19.5 76.5,19.5C 76.5,23.5 76.5,27.5 76.5,31.5C 76.5,33.8333 76.5,36.1667 76.5,38.5C 74.5595,32.224 74.2262,25.8907 75.5,19.5 Z"/></g>
<g><path style="opacity:1" fill="#4d4d4d" d="M 79.5,24.5 C 79.3341,29.5111 79.5007,34.5111 80,39.5C 81.1092,43.9529 83.9425,45.6195 88.5,44.5C 88.5,44.8333 88.5,45.1667 88.5,45.5C 86.7078,46.3091 84.7078,46.8091 82.5,47C 85.4816,47.498 88.4816,47.6646 91.5,47.5C 82.6483,51.5615 77.6483,48.5615 76.5,38.5C 76.5,36.1667 76.5,33.8333 76.5,31.5C 76.9174,28.8411 77.9174,26.5078 79.5,24.5 Z"/></g>
<g><path style="opacity:1" fill="#414141" d="M 96.5,40.5 C 96.5,38.5 96.5,36.5 96.5,34.5C 94.5,34.5 92.5,34.5 90.5,34.5C 91.3683,37.6727 91.3683,40.6727 90.5,43.5C 90.1667,43.5 89.8333,43.5 89.5,43.5C 89.5567,41.1155 89.2234,38.7822 88.5,36.5C 88.5288,34.9707 89.1955,33.804 90.5,33C 98.4551,31.1363 100.455,33.6363 96.5,40.5 Z"/></g>
<g><path style="opacity:1" fill="#e1e1e1" d="M 96.5,40.5 C 96.6716,41.4916 96.3382,42.1583 95.5,42.5C 93.9519,42.8212 93.2852,43.8212 93.5,45.5C 93.1667,46.5 92.5,47.1667 91.5,47.5C 88.4816,47.6646 85.4816,47.498 82.5,47C 84.7078,46.8091 86.7078,46.3091 88.5,45.5C 89.5,45.1667 90.1667,44.5 90.5,43.5C 91.3683,40.6727 91.3683,37.6727 90.5,34.5C 92.5,34.5 94.5,34.5 96.5,34.5C 96.5,36.5 96.5,38.5 96.5,40.5 Z"/></g>
<g><path style="opacity:1" fill="#000000" d="M 47.5,37.5 C 38.9832,37.1739 30.6499,37.5073 22.5,38.5C 21.9569,38.44 21.6236,38.1067 21.5,37.5C 30.3245,36.1786 38.9912,36.1786 47.5,37.5 Z"/></g>
<g><path style="opacity:1" fill="#515151" d="M 47.5,37.5 C 47.5,37.8333 47.5,38.1667 47.5,38.5C 39.8333,38.5 32.1667,38.5 24.5,38.5C 24.4275,52.1866 24.9275,65.8533 26,79.5C 26.3356,86.0098 27.5023,92.3431 29.5,98.5C 29.1667,98.5 28.8333,98.5 28.5,98.5C 27.207,97.158 26.3736,95.4913 26,93.5C 23.3813,75.2681 22.2147,56.9347 22.5,38.5C 30.6499,37.5073 38.9832,37.1739 47.5,37.5 Z"/></g>
<g><path style="opacity:1" fill="#f0f0f0" d="M 47.5,38.5 C 49.9608,39.531 52.6275,40.1977 55.5,40.5C 58.3972,41.5581 60.5639,43.5581 62,46.5C 62.4986,50.1516 62.6653,53.8183 62.5,57.5C 60.9519,57.8212 60.2852,58.8212 60.5,60.5C 58.9519,60.8212 58.2852,61.8212 58.5,63.5C 58.1667,64.5 57.5,65.1667 56.5,65.5C 54.9519,65.8212 54.2852,66.8212 54.5,68.5C 54.6716,69.4916 54.3382,70.1583 53.5,70.5C 52.8476,71.4486 52.5143,72.6153 52.5,74C 52.6083,75.6811 53.2749,76.8478 54.5,77.5C 54.2852,79.1788 54.9519,80.1788 56.5,80.5C 56.5544,82.632 57.5544,83.9653 59.5,84.5C 59.5544,86.632 60.5544,87.9653 62.5,88.5C 62.2852,90.1788 62.9519,91.1788 64.5,91.5C 64.2627,92.791 64.596,93.791 65.5,94.5C 65.7148,96.1788 65.0481,97.1788 63.5,97.5C 58.1273,92.2939 53.2939,86.6272 49,80.5C 46.5644,77.5532 43.7311,75.2199 40.5,73.5C 40.0296,72.3065 39.0296,71.6399 37.5,71.5C 36.2739,71.5195 35.2739,71.8529 34.5,72.5C 34.7678,74.099 34.4345,75.4324 33.5,76.5C 32.5088,83.3134 32.1755,90.3134 32.5,97.5C 31.609,98.1098 30.609,98.4431 29.5,98.5C 27.5023,92.3431 26.3356,86.0098 26,79.5C 24.9275,65.8533 24.4275,52.1866 24.5,38.5C 32.1667,38.5 39.8333,38.5 47.5,38.5 Z M 39.5,41.5 C 44.0854,41.4744 48.4187,42.4744 52.5,44.5C 54.8955,47.7285 56.2288,51.3951 56.5,55.5C 54.971,59.7007 52.3043,63.034 48.5,65.5C 43.6001,65.9672 38.9334,65.3006 34.5,63.5C 33.6576,58.213 33.3243,52.8797 33.5,47.5C 34.5,44.5 36.5,42.5 39.5,41.5 Z"/></g>
<g><path style="opacity:1" fill="#4d4d4d" d="M 47.5,37.5 C 50.4951,37.2938 53.1617,37.9605 55.5,39.5C 55.5,39.8333 55.5,40.1667 55.5,40.5C 52.6275,40.1977 49.9608,39.531 47.5,38.5C 47.5,38.1667 47.5,37.8333 47.5,37.5 Z"/></g>
<g><path style="opacity:1" fill="#3c3c3c" d="M 55.5,39.5 C 64.5093,42.8766 66.8426,48.8766 62.5,57.5C 62.6653,53.8183 62.4986,50.1516 62,46.5C 60.5639,43.5581 58.3972,41.5581 55.5,40.5C 55.5,40.1667 55.5,39.8333 55.5,39.5 Z"/></g>
<g><path style="opacity:1" fill="#2d2d2d" d="M 39.5,41.5 C 42.3035,40.3622 45.3035,40.1955 48.5,41C 50.5444,41.4983 51.8777,42.665 52.5,44.5C 48.4187,42.4744 44.0854,41.4744 39.5,41.5 Z"/></g>
<g><path style="opacity:1" fill="#262626" d="M 95.5,42.5 C 95.573,44.0269 94.9063,45.0269 93.5,45.5C 93.2852,43.8212 93.9519,42.8212 95.5,42.5 Z"/></g>
<g><path style="opacity:1" fill="#5f5f5f" d="M 89.5,43.5 C 89.8333,43.5 90.1667,43.5 90.5,43.5C 90.1667,44.5 89.5,45.1667 88.5,45.5C 88.5,45.1667 88.5,44.8333 88.5,44.5C 88.5,43.8333 88.8333,43.5 89.5,43.5 Z"/></g>
<g><path style="opacity:1" fill="#434343" d="M 52.5,44.5 C 54.7525,44.9156 56.2525,46.249 57,48.5C 57.4221,50.3553 57.9221,52.1886 58.5,54C 58.4301,54.7648 58.0967,55.2648 57.5,55.5C 57.1667,55.5 56.8333,55.5 56.5,55.5C 56.2288,51.3951 54.8955,47.7285 52.5,44.5 Z"/></g>
<g><path style="opacity:1" fill="#262626" d="M 62.5,57.5 C 62.573,59.0269 61.9063,60.0269 60.5,60.5C 60.2852,58.8212 60.9519,57.8212 62.5,57.5 Z"/></g>
<g><path style="opacity:1" fill="#222222" d="M 33.5,47.5 C 33.3243,52.8797 33.6576,58.213 34.5,63.5C 33.1883,61.2568 32.5217,58.5902 32.5,55.5C 32.5025,52.6445 32.8359,49.9779 33.5,47.5 Z"/></g>
<g><path style="opacity:1" fill="#262626" d="M 60.5,60.5 C 60.573,62.0269 59.9063,63.0269 58.5,63.5C 58.2852,61.8212 58.9519,60.8212 60.5,60.5 Z"/></g>
<g><path style="opacity:1" fill="#4b4b4b" d="M 56.5,55.5 C 56.8333,55.5 57.1667,55.5 57.5,55.5C 56.338,60.6627 53.338,64.3294 48.5,66.5C 48.5,66.1667 48.5,65.8333 48.5,65.5C 52.3043,63.034 54.971,59.7007 56.5,55.5 Z"/></g>
<g><path style="opacity:1" fill="#3b3b3b" d="M 34.5,63.5 C 38.9334,65.3006 43.6001,65.9672 48.5,65.5C 48.5,65.8333 48.5,66.1667 48.5,66.5C 45.0242,67.6433 41.3575,67.8099 37.5,67C 35.5743,66.5776 34.5743,65.4109 34.5,63.5 Z"/></g>
<g><path style="opacity:1" fill="#262626" d="M 56.5,65.5 C 56.573,67.0269 55.9063,68.0269 54.5,68.5C 54.2852,66.8212 54.9519,65.8212 56.5,65.5 Z"/></g>
<g><path style="opacity:1" fill="#232323" d="M 34.5,72.5 C 35.2739,71.8529 36.2739,71.5195 37.5,71.5C 39.0296,71.6399 40.0296,72.3065 40.5,73.5C 38.5648,72.8505 36.5648,72.5172 34.5,72.5 Z"/></g>
<g><path style="opacity:1" fill="#232323" d="M 53.5,70.5 C 53.448,72.9029 53.7814,75.2362 54.5,77.5C 53.2749,76.8478 52.6083,75.6811 52.5,74C 52.5143,72.6153 52.8476,71.4486 53.5,70.5 Z"/></g>
<g><path style="opacity:1" fill="#262626" d="M 54.5,77.5 C 55.9063,77.9731 56.573,78.9731 56.5,80.5C 54.9519,80.1788 54.2852,79.1788 54.5,77.5 Z"/></g>
<g><path style="opacity:1" fill="#252525" d="M 33.5,76.5 C 34.4568,83.4774 34.6234,90.4774 34,97.5C 33.7216,98.4158 33.2216,99.0825 32.5,99.5C 32.5,98.8333 32.5,98.1667 32.5,97.5C 32.1755,90.3134 32.5088,83.3134 33.5,76.5 Z"/></g>
<g><path style="opacity:1" fill="#505050" d="M 56.5,80.5 C 58.2624,81.2623 59.2624,82.5956 59.5,84.5C 57.5544,83.9653 56.5544,82.632 56.5,80.5 Z"/></g>
<g><path style="opacity:1" fill="#424242" d="M 40.5,73.5 C 43.7311,75.2199 46.5644,77.5532 49,80.5C 53.2939,86.6272 58.1273,92.2939 63.5,97.5C 63.5,97.8333 63.5,98.1667 63.5,98.5C 55.144,90.7775 47.4774,82.4442 40.5,73.5 Z"/></g>
<g><path style="opacity:1" fill="#505050" d="M 59.5,84.5 C 61.2624,85.2623 62.2624,86.5956 62.5,88.5C 60.5544,87.9653 59.5544,86.632 59.5,84.5 Z"/></g>
<g><path style="opacity:1" fill="#262626" d="M 62.5,88.5 C 63.9063,88.9731 64.573,89.9731 64.5,91.5C 62.9519,91.1788 62.2852,90.1788 62.5,88.5 Z"/></g>
<g><path style="opacity:1" fill="#262626" d="M 64.5,91.5 C 65.9063,91.9731 66.573,92.9731 66.5,94.5C 66.1667,94.5 65.8333,94.5 65.5,94.5C 64.596,93.791 64.2627,92.791 64.5,91.5 Z"/></g>
<g><path style="opacity:1" fill="#4d4d4d" d="M 65.5,94.5 C 65.8333,94.5 66.1667,94.5 66.5,94.5C 67.7027,95.9425 68.2027,97.6092 68,99.5C 66.2507,100.553 64.7507,100.22 63.5,98.5C 63.5,98.1667 63.5,97.8333 63.5,97.5C 65.0481,97.1788 65.7148,96.1788 65.5,94.5 Z"/></g>
<g><path style="opacity:1" fill="#808180" d="M 32.5,97.5 C 32.5,98.1667 32.5,98.8333 32.5,99.5C 31.209,99.7373 30.209,99.404 29.5,98.5C 30.609,98.4431 31.609,98.1098 32.5,97.5 Z"/></g>
<g><path style="opacity:1" fill="#000000" d="M 28.5,98.5 C 28.8333,98.5 29.1667,98.5 29.5,98.5C 30.209,99.404 31.209,99.7373 32.5,99.5C 32.0831,100.124 31.4164,100.457 30.5,100.5C 29.2867,100.253 28.62,99.5862 28.5,98.5 Z"/></g>
</svg>
