<?xml version="1.0" standalone="no"?>
<!DOCTYPE svg PUBLIC "-//W3C//DTD SVG 20010904//EN"
 "http://www.w3.org/TR/2001/REC-SVG-20010904/DTD/svg10.dtd">
<svg version="1.0" xmlns="http://www.w3.org/2000/svg"
 width="28.000000pt" height="28.000000pt" viewBox="0 0 28.000000 28.000000"
 preserveAspectRatio="xMidYMid meet">

<g transform="translate(0.000000,28.000000) scale(0.100000,-0.100000)"
fill="#000000" stroke="none">
<path d="M182 203 c3 -44 30 -57 48 -24 9 17 8 21 -4 21 -10 0 -13 -6 -10 -15
4 -9 0 -15 -10 -15 -11 0 -16 9 -16 31 0 26 3 31 20 26 11 -3 20 -1 20 4 0 5
-12 9 -26 9 -23 0 -25 -3 -22 -37z"/>
<path d="M58 115 c3 -51 8 -75 16 -75 8 0 11 12 8 35 -5 44 8 44 42 0 15 -19
32 -35 37 -35 6 0 -1 15 -15 33 -24 32 -24 32 -5 55 29 36 10 62 -44 62 l-42
0 3 -75z m76 50 c9 -25 -4 -45 -30 -45 -20 0 -24 5 -24 30 0 25 4 30 24 30 13
0 26 -7 30 -15z"/>
</g>
</svg>
